<svg width="32" height="32" viewBox="0 0 32 32" fill="none" xmlns="http://www.w3.org/2000/svg">
<path fill-rule="evenodd" clip-rule="evenodd" d="M29.737 21.8411L28.2063 28.4706C27.8289 30.1113 26.8297 31.5321 25.1449 31.5321H6.85586C5.1728 31.5321 4.17361 30.1113 3.79448 28.4706L2.26367 21.8411L16.0013 20.6948L29.737 21.8411Z" fill="#DDEACC"/>
<path fill-rule="evenodd" clip-rule="evenodd" d="M29.7377 21.8408L28.2069 28.4704C27.8295 30.111 26.8303 31.5319 25.1455 31.5319H23.6289C25.3138 31.5319 26.3112 30.111 26.6903 28.4704L28.221 21.8408H29.7377Z" fill="#A9C28A"/>
<path fill-rule="evenodd" clip-rule="evenodd" d="M3.45148 19.5465H8.25454L15.4687 18.666L23.7478 19.5465H28.5525C29.6493 19.5465 30.5723 20.3261 30.7955 21.359C30.8699 21.7009 30.753 21.832 30.3632 21.8408H1.6408C1.25636 21.8302 1.13055 21.7097 1.20673 21.359C1.42817 20.3261 2.35298 19.5465 3.45148 19.5465Z" fill="#A9C28A"/>
<path fill-rule="evenodd" clip-rule="evenodd" d="M27.0352 19.5466H28.5517C29.6485 19.5466 30.5715 20.3262 30.7947 21.3591C30.8691 21.701 30.7522 21.8321 30.3624 21.8409H28.844C29.2337 21.8321 29.3525 21.701 29.2781 21.3591C29.0548 20.3262 28.1318 19.5466 27.0352 19.5466Z" fill="#A9C28A"/>
<path fill-rule="evenodd" clip-rule="evenodd" d="M13.6575 24.1369H18.3436C19.6068 24.1369 20.6397 23.104 20.6397 21.8408H11.3613C11.3613 23.104 12.3943 24.1369 13.6575 24.1369Z" fill="#DDEACC"/>
<path fill-rule="evenodd" clip-rule="evenodd" d="M16.8281 24.1369H18.3447C19.6079 24.1369 20.6408 23.104 20.6408 21.8408H19.1243C19.1243 23.104 18.0913 24.1369 16.8281 24.1369Z" fill="#A9C28A"/>
<path fill-rule="evenodd" clip-rule="evenodd" d="M27.6361 11.3385L26.3393 16.9529C26.0186 18.3419 25.1735 19.5466 23.7473 19.5466H8.25411C6.82786 19.5466 5.98273 18.3419 5.66205 16.9529L4.36523 11.3385L16.0034 10.1904L27.6361 11.3385Z" fill="#DDEACC"/>
<path fill-rule="evenodd" clip-rule="evenodd" d="M27.6358 11.3384L26.339 16.9528C26.0183 18.3418 25.1733 19.5465 23.747 19.5465H22.2305C23.6566 19.5465 24.5018 18.3418 24.8225 16.9528L26.1193 11.3384H27.6358Z" fill="#A9C28A"/>
<path fill-rule="evenodd" clip-rule="evenodd" d="M5.33565 9.04251H10.0749L15.7708 8.49683L21.9257 9.04251H26.6667C27.7633 9.04251 28.6863 9.82383 28.9113 10.8566C28.9893 11.2216 28.8759 11.328 28.4773 11.3386H3.52503C3.13878 11.3208 3.0219 11.1773 3.09103 10.8549C3.3089 9.82195 4.23728 9.04251 5.33565 9.04251Z" fill="#A9C28A"/>
<path fill-rule="evenodd" clip-rule="evenodd" d="M24.9016 2.76525L23.9094 7.05975C23.6649 8.121 23.0164 9.04231 21.9269 9.04231H10.0762C8.98663 9.04231 8.33819 8.12106 8.09369 7.05975L7.10156 2.76525L16.0007 1.61719L24.9016 2.76525Z" fill="#DDEACC"/>
<path fill-rule="evenodd" clip-rule="evenodd" d="M24.9014 2.76538L23.9092 7.05988C23.6647 8.12113 23.0163 9.04244 21.9267 9.04244H20.4102C21.4998 9.04244 22.1482 8.12119 22.3927 7.05988L23.3848 2.76538H24.9014Z" fill="#A9C28A"/>
<path fill-rule="evenodd" clip-rule="evenodd" d="M8.07097 0.469238H23.9291C25.0276 0.469238 25.9542 1.24699 26.1738 2.28168C26.2572 2.67493 26.1083 2.7583 25.7398 2.76536H6.26022C5.85804 2.75649 5.74297 2.62536 5.82622 2.28518C6.07247 1.25586 6.97247 0.469238 8.07097 0.469238Z" fill="#A9C28A"/>
<path fill-rule="evenodd" clip-rule="evenodd" d="M22.4141 0.469238H23.9306C25.0291 0.469238 25.9556 1.2488 26.1753 2.28168C26.2586 2.67493 26.1098 2.7583 25.7413 2.76536H24.2248C24.5933 2.7583 24.7421 2.67493 24.6588 2.28168C24.4391 1.24874 23.5124 0.469238 22.4141 0.469238Z" fill="#A9C28A"/>
<path fill-rule="evenodd" clip-rule="evenodd" d="M14.9836 5.05969H17.0192C18.2824 5.05969 19.3154 4.02682 19.3154 2.76538H12.6875C12.6875 4.02682 13.7204 5.05969 14.9836 5.05969Z" fill="#DDEACC"/>
<path fill-rule="evenodd" clip-rule="evenodd" d="M15.502 5.05969H17.0185C18.2817 5.05969 19.3146 4.02682 19.3146 2.76538H17.798C17.7981 4.02682 16.7651 5.05969 15.502 5.05969Z" fill="#A9C28A"/>
<path fill-rule="evenodd" clip-rule="evenodd" d="M25.1504 9.04248H26.667C27.7636 9.04248 28.6866 9.82379 28.9116 10.8566C28.9896 11.2216 28.8762 11.3296 28.4776 11.3385H26.9593C27.3596 11.3296 27.4731 11.2216 27.3933 10.8566C27.1701 9.82379 26.247 9.04248 25.1504 9.04248Z" fill="#A9C28A"/>
<path fill-rule="evenodd" clip-rule="evenodd" d="M14.3196 13.6344H17.6804C18.9437 13.6344 19.9766 12.6016 19.9766 11.3384H12.0234C12.0235 12.6016 13.0564 13.6344 14.3196 13.6344Z" fill="#DDEACC"/>
<path fill-rule="evenodd" clip-rule="evenodd" d="M16.1641 13.6344H17.6806C18.9439 13.6344 19.9767 12.6016 19.9767 11.3384H18.4601C18.4601 12.6016 17.4273 13.6344 16.1641 13.6344Z" fill="#A9C28A"/>
<path d="M3.24567 24.0169C3.30417 24.2684 3.14642 24.5201 2.89492 24.5784C2.6433 24.6352 2.39167 24.4775 2.33498 24.2259L1.89205 22.3106H1.15505C0.896359 22.3106 0.685547 22.1016 0.685547 21.8411C0.685547 21.0811 0.997359 20.3901 1.49692 19.8888C1.9983 19.3874 2.6893 19.0774 3.45117 19.0774H6.18836C5.70823 18.5406 5.3823 17.8231 5.20511 17.0577L3.9933 11.8064H3.04017C2.78148 11.8064 2.57061 11.5974 2.57061 11.3387C2.57061 10.5769 2.88242 9.886 3.38205 9.38638C3.88336 8.88506 4.57436 8.57319 5.33617 8.57319H8.26305C7.96355 8.17631 7.7563 7.68375 7.63755 7.16294L6.90223 3.98113C6.84373 3.72775 7.00148 3.47794 7.25305 3.4195C7.50461 3.36281 7.75623 3.5205 7.81292 3.77206L8.54823 6.95569C8.66161 7.44294 8.86717 7.88931 9.17005 8.19238C9.40392 8.428 9.70511 8.57331 10.0754 8.57331H21.926C22.2964 8.57331 22.5975 8.428 22.8314 8.19238C23.1343 7.88931 23.3398 7.44294 23.4532 6.95569L24.3125 3.23344H19.7434C19.6442 3.8075 19.3677 4.32119 18.9727 4.71806C18.4713 5.21769 17.7803 5.5295 17.0185 5.5295H14.9829C14.2229 5.5295 13.5301 5.21769 13.0305 4.71806C12.6336 4.32119 12.3573 3.8075 12.258 3.23344H7.68886L7.81467 3.77381C7.87136 4.02537 7.94048 5.72275 7.68886 5.78125C7.43736 5.83787 6.95892 4.23444 6.90223 3.98113L6.72867 3.23344H5.77555C5.51686 3.23344 5.30605 3.02437 5.30605 2.76575C5.30605 2.00394 5.61786 1.31294 6.11923 0.8115C6.61892 0.311813 7.3098 0 8.07173 0H23.9299C24.6917 0 25.3827 0.311813 25.8841 0.811375C26.3837 1.31281 26.6955 2.00375 26.6955 2.76562C26.6955 3.02431 26.4847 3.23331 26.226 3.23331H25.2729L24.3657 7.16288C24.2452 7.68194 24.038 8.17631 23.7385 8.57312H26.6671C27.4271 8.57312 28.1181 8.88494 28.6194 9.38631C29.1208 9.88594 29.4309 10.5769 29.4309 11.3387C29.4309 11.5974 29.2217 11.8063 28.9631 11.8063H28.0083L27.684 13.2148C27.6256 13.4664 27.374 13.6241 27.1225 13.5674C26.8709 13.5089 26.7132 13.2591 26.7717 13.0076L27.0481 11.8063H20.406C20.3069 12.3804 20.0304 12.8959 19.6354 13.291C19.134 13.7924 18.443 14.1024 17.6812 14.1024H14.3204C13.5586 14.1024 12.8675 13.7924 12.368 13.291C11.9711 12.8959 11.6948 12.3804 11.5955 11.8063H4.95355L6.11748 16.8486C6.26986 17.5112 6.55155 18.1206 6.96786 18.5369C7.30092 18.8701 7.72786 19.0774 8.25417 19.0774H23.7474C24.2737 19.0774 24.7006 18.8701 25.0337 18.5369C25.45 18.1206 25.7317 17.5112 25.884 16.8486L26.7717 13.0076C26.8302 12.7542 27.08 12.5983 27.3315 12.655C27.5849 12.7135 27.7408 12.9633 27.6841 13.2148L26.7965 17.0576C26.6193 17.8229 26.2951 18.5405 25.8132 19.0772H28.5522C29.3123 19.0772 30.0032 19.3873 30.5046 19.8887C31.006 20.39 31.316 21.081 31.316 21.841C31.316 22.1014 31.1069 22.3105 30.8483 22.3105H30.1095L28.6638 28.5751C28.4424 29.5336 28.0207 30.4301 27.3882 31.0626C26.8089 31.6403 26.0648 32 25.1453 32H6.8563C5.9368 32 5.19273 31.6403 4.61517 31.0627C3.98092 30.4303 3.56111 29.5338 3.33961 28.5753L2.33323 24.226C2.27655 23.9744 2.43423 23.7228 2.68586 23.6661C2.93736 23.6077 3.18898 23.7653 3.24567 24.0169L4.2503 28.3662C4.43455 29.1635 4.77473 29.897 5.27786 30.4001C5.68542 30.8094 6.2098 31.0627 6.85642 31.0627H25.1455C25.7922 31.0627 26.3165 30.8094 26.724 30.4001C27.2272 29.897 27.5673 29.1635 27.7515 28.3662L29.1494 22.3106H21.0687C20.9695 22.8847 20.693 23.3984 20.298 23.7953C19.7967 24.2949 19.1057 24.6068 18.3438 24.6068H13.6577C12.8959 24.6068 12.2049 24.2949 11.7035 23.7953C11.3085 23.3984 11.0321 22.8847 10.9329 22.3106H2.85236L3.24567 24.0169ZM18.785 3.23331H13.2166C13.3017 3.54869 13.4682 3.83038 13.6932 4.05531C14.0245 4.38663 14.4816 4.59219 14.983 4.59219H17.0186C17.5217 4.59219 17.977 4.38663 18.3084 4.05531C18.5334 3.83038 18.6999 3.54869 18.785 3.23331ZM19.4476 11.8064H12.554C12.639 12.1218 12.8055 12.4034 13.0306 12.6284C13.3619 12.9597 13.819 13.1652 14.3204 13.1652H17.6812C18.1844 13.1652 18.6397 12.9597 18.9729 12.6284C19.196 12.4034 19.3625 12.1218 19.4476 11.8064ZM20.1102 22.3107H11.8914C11.9764 22.6261 12.1429 22.9077 12.368 23.1327C12.6993 23.4641 13.1546 23.6696 13.6578 23.6696H18.3439C18.847 23.6696 19.3042 23.4641 19.6355 23.1327C19.8587 22.9077 20.0252 22.6261 20.1102 22.3107ZM25.6963 2.29606C25.6113 1.98069 25.4447 1.699 25.2215 1.474C24.8884 1.14269 24.4331 0.93725 23.9299 0.93725H8.07173C7.5703 0.93725 7.11317 1.14269 6.78186 1.474C6.55686 1.69906 6.3903 1.98069 6.3053 2.29606H25.6963ZM28.4317 10.8693C28.3485 10.5556 28.182 10.2722 27.9569 10.0489C27.6256 9.71763 27.1685 9.51213 26.6672 9.51213C19.5557 9.51213 12.4459 9.51213 5.33617 9.51213C4.83305 9.51213 4.37598 9.71763 4.04467 10.0489C3.82142 10.2722 3.65492 10.5556 3.56986 10.8693H28.4317ZM30.3169 21.3735C30.2336 21.0581 30.067 20.7764 29.842 20.5515C29.5107 20.2202 29.0536 20.0147 28.5522 20.0147C20.1846 20.0147 11.8169 20.0147 3.45117 20.0147C2.94798 20.0147 2.49086 20.2202 2.15955 20.5515C1.93636 20.7765 1.76986 21.0581 1.68473 21.3735H30.3169Z" fill="#6D944B"/>
</svg>
