<svg width="95" height="76" viewBox="0 0 95 76" fill="none" xmlns="http://www.w3.org/2000/svg">
<path d="M34.1963 65.2275V65.9722H31.7279V67.7375H33.652V68.4746H31.7279V71.0431H30.7754V65.2275H34.1963Z" fill="#67893B"/>
<path d="M39.3018 70.3155C39.5475 70.3155 39.778 70.255 39.9916 70.1322C40.2071 70.0093 40.381 69.8298 40.5151 69.5916C40.6493 69.3554 40.7155 69.0681 40.7155 68.7336C40.7155 68.3991 40.6512 68.1137 40.5227 67.8755C40.3942 67.6393 40.2241 67.4597 40.0124 67.3406C39.8007 67.2216 39.572 67.1611 39.3263 67.1611C39.0806 67.1611 38.8557 67.2216 38.6478 67.3406C38.4418 67.4597 38.2755 67.6393 38.1508 67.8755C38.026 68.1118 37.9618 68.3991 37.9618 68.7336C37.9618 69.0681 38.0222 69.3554 38.1413 69.5954C38.2604 69.8355 38.4229 70.015 38.627 70.136C38.8312 70.255 39.0561 70.3155 39.2999 70.3155M39.2999 71.1188C38.8652 71.1188 38.4721 71.0205 38.1205 70.822C37.769 70.6236 37.493 70.3457 37.2927 69.9848C37.0924 69.6257 36.9922 69.208 36.9922 68.7336C36.9922 68.2592 37.0961 67.8491 37.3021 67.4862C37.5082 67.1233 37.7898 66.8455 38.147 66.6489C38.5042 66.4542 38.903 66.356 39.3433 66.356C39.7837 66.356 40.1825 66.4542 40.5397 66.6489C40.8969 66.8436 41.1785 67.1233 41.3845 67.4862C41.5906 67.8491 41.6945 68.2649 41.6945 68.7336C41.6945 69.2023 41.5887 69.6181 41.377 69.981C41.1653 70.3439 40.8761 70.6236 40.5114 70.822C40.1466 71.0205 39.7421 71.1188 39.3018 71.1188H39.2999Z" fill="#67893B"/>
<path d="M46.8701 70.3155C47.1158 70.3155 47.3464 70.255 47.56 70.1322C47.7754 70.0093 47.9493 69.8298 48.0835 69.5916C48.2177 69.3554 48.2838 69.0681 48.2838 68.7336C48.2838 68.3991 48.2196 68.1137 48.0911 67.8755C47.9625 67.6393 47.7924 67.4597 47.5808 67.3406C47.3691 67.2216 47.1404 67.1611 46.8947 67.1611C46.649 67.1611 46.4241 67.2216 46.2162 67.3406C46.0102 67.4597 45.8439 67.6393 45.7191 67.8755C45.5944 68.1118 45.5301 68.3991 45.5301 68.7336C45.5301 69.0681 45.5906 69.3554 45.7097 69.5954C45.8287 69.8355 45.9913 70.015 46.1954 70.136C46.3995 70.255 46.6244 70.3155 46.8682 70.3155M46.8682 71.1188C46.4335 71.1188 46.0404 71.0205 45.6889 70.822C45.3373 70.6236 45.0614 70.3457 44.8611 69.9848C44.6607 69.6257 44.5605 69.208 44.5605 68.7336C44.5605 68.2592 44.6645 67.8491 44.8705 67.4862C45.0765 67.1233 45.3581 66.8455 45.7153 66.6489C46.0725 66.4542 46.4713 66.356 46.9117 66.356C47.3521 66.356 47.7509 66.4542 48.1081 66.6489C48.4653 66.8436 48.7469 67.1233 48.9529 67.4862C49.1589 67.8491 49.2629 68.2649 49.2629 68.7336C49.2629 69.2023 49.157 69.6181 48.9453 69.981C48.7337 70.3439 48.4445 70.6236 48.0797 70.822C47.715 71.0205 47.3105 71.1188 46.8701 71.1188H46.8682Z" fill="#67893B"/>
<path d="M55.8935 68.7338C55.8935 68.4162 55.8273 68.1403 55.6969 67.9059C55.5665 67.6716 55.3945 67.4939 55.1828 67.3711C54.9711 67.2482 54.7425 67.1877 54.4968 67.1877C54.2511 67.1877 54.0224 67.2482 53.8107 67.3673C53.599 67.4864 53.427 67.6621 53.2966 67.8946C53.1662 68.1252 53.1001 68.4011 53.1001 68.7186C53.1001 69.0361 53.1662 69.3159 53.2966 69.5559C53.427 69.7959 53.6009 69.9793 53.8145 70.104C54.0299 70.2287 54.2567 70.293 54.4968 70.293C54.7368 70.293 54.9711 70.2325 55.1828 70.1097C55.3945 69.9868 55.5665 69.8073 55.6969 69.5691C55.8273 69.3329 55.8935 69.0551 55.8935 68.7375M52.1191 68.7205C52.1191 68.2575 52.2155 67.8473 52.4083 67.4901C52.6011 67.1329 52.8638 66.8551 53.1946 66.6585C53.5272 66.4601 53.8957 66.3618 54.304 66.3618C54.6045 66.3618 54.9031 66.428 55.1942 66.5584C55.4871 66.6888 55.7196 66.8645 55.8935 67.0819V64.8555H56.8555V71.0471H55.8935V70.3535C55.7366 70.5765 55.5211 70.7598 55.2452 70.9054C54.9693 71.0509 54.6517 71.1227 54.2964 71.1227C53.8938 71.1227 53.5272 71.0207 53.1964 70.8165C52.8638 70.6124 52.603 70.3289 52.4102 69.9623C52.2174 69.5975 52.121 69.1836 52.121 68.7205H52.1191Z" fill="#67893B"/>
<path d="M67.4855 65.2275V71.0431H66.5311V68.4746H63.7944V71.0431H62.8418V65.2275H63.7944V67.7375H66.5311V65.2275H67.4855Z" fill="#67893B"/>
<path d="M75.1442 66.4335V71.0432H74.1897V70.4989C74.0385 70.6879 73.842 70.8372 73.6001 70.9469C73.3581 71.0565 73.0992 71.1094 72.8252 71.1094C72.4623 71.1094 72.1372 71.0338 71.8499 70.8826C71.5626 70.7314 71.3358 70.5084 71.1714 70.2135C71.007 69.9187 70.9238 69.5615 70.9238 69.1419V66.4316H71.8688V69.0002C71.8688 69.4122 71.9728 69.7297 72.1788 69.9489C72.3848 70.1701 72.6664 70.2797 73.0236 70.2797C73.3808 70.2797 73.6643 70.1701 73.8722 69.9489C74.082 69.7278 74.186 69.4122 74.186 69.0002V66.4316H75.1404L75.1442 66.4335Z" fill="#67893B"/>
<path d="M82.3823 68.7169C82.3823 68.3994 82.3162 68.1235 82.1858 67.8929C82.0554 67.6623 81.8815 67.4865 81.6679 67.3656C81.4524 67.2465 81.2238 67.186 80.9781 67.186C80.7324 67.186 80.5112 67.2465 80.2958 67.3693C80.0803 67.4922 79.9083 67.6699 79.7779 67.9042C79.6475 68.1386 79.5813 68.4145 79.5813 68.732C79.5813 69.0496 79.6475 69.3274 79.7779 69.5636C79.9083 69.7999 80.0822 69.9813 80.2958 70.1042C80.5112 70.227 80.738 70.2875 80.9781 70.2875C81.2181 70.2875 81.4543 70.2251 81.6679 70.0985C81.8834 69.9738 82.0554 69.7904 82.1858 69.5504C82.3162 69.3104 82.3823 69.0325 82.3823 68.7131M79.5795 67.1142C79.742 66.8912 79.9631 66.7078 80.2447 66.5661C80.5263 66.4243 80.8401 66.3525 81.186 66.3525C81.5923 66.3525 81.9609 66.4508 82.2897 66.6455C82.6186 66.8401 82.8775 67.118 83.0684 67.4771C83.2574 67.8362 83.3538 68.2482 83.3538 68.7112C83.3538 69.1743 83.2593 69.5882 83.0684 69.953C82.8794 70.3177 82.6186 70.6031 82.2859 70.8073C81.9533 71.0114 81.5866 71.1134 81.186 71.1134C80.8287 71.1134 80.5131 71.0435 80.2372 70.9036C79.9612 70.7638 79.742 70.5861 79.5795 70.3688V71.0378H78.625V64.8462H79.5795V67.1142Z" fill="#67893B"/>
<path d="M62.2305 33.3191C62.686 33.1849 63.5176 32.9051 64.5627 32.4723C63.8672 32.6651 63.0526 32.9505 62.2305 33.3191ZM74.1904 4.5835C74.1904 4.5835 69.7054 11.7806 69.025 17.8607C68.7472 20.3574 67.5867 23.3588 66.2751 26.0558C67.8646 27.3485 68.0706 29.9983 66.3922 31.4253C66.2354 31.601 66.0539 31.7636 65.846 31.9072C69.7338 30.1042 75.2639 26.6398 76.7646 21.3176C79.1875 12.7426 75.8611 6.2845 74.1885 4.5835H74.1904Z" fill="#4F7435"/>
<path d="M73.6103 4.54532C73.6103 4.54532 66.2374 3.34517 62.6993 11.389C59.698 18.2176 60.8225 20.6462 61.1552 23.5738C61.2156 24.1144 61.2856 24.9006 61.329 25.7908C61.6447 25.719 61.9603 25.6547 62.274 25.598C62.2948 25.5961 62.3156 25.5924 62.3345 25.5905C62.7257 25.4979 63.117 25.4166 63.5063 25.3467C64.268 25.2484 64.9352 25.3486 65.4965 25.5867C66.6456 23.4019 67.7059 20.7804 68.3409 17.798C69.5071 12.3416 73.6159 6.09512 74.353 4.88174C74.4551 4.7192 73.6103 4.54721 73.6103 4.54721" fill="#67893B"/>
<path d="M45.7285 8.51625C45.7285 8.51625 47.7168 15.5414 51.2001 19.4953C53.0466 21.5913 54.5794 25.1123 55.5962 28.0475C56.7019 27.3822 57.8926 26.8417 59.1173 26.4202C59.6956 23.245 59.7259 19.5085 57.8888 16.5639C53.8234 10.0528 47.7829 8.43498 45.7285 8.51814" fill="#4F7435"/>
<path d="M45.1472 8.8226C45.1472 8.8226 40.0801 12.7859 43.1022 19.7241C45.665 25.6153 47.8612 26.3221 49.9043 27.8209C50.5658 28.3066 51.7168 29.2157 52.7733 30.2174C53.3006 29.6939 53.8733 29.2138 54.4819 28.7753C53.8355 26.2125 52.641 22.9976 50.4543 19.9018C47.6817 15.9763 46.1319 9.72413 45.7936 8.54855C45.7482 8.38979 45.1472 8.82449 45.1472 8.82449" fill="#67893B"/>
<path d="M25.1467 63.9027C21.5841 63.7855 18.2274 62.453 15.9103 59.7938C13.3418 56.938 12.3212 52.5967 12.8939 48.5596C12.9203 48.1306 13.0186 47.539 13.0999 47.1195C13.1622 46.7074 13.2605 46.1178 13.3872 45.7228C14.8368 39.3761 19.5901 35.3221 25.7931 33.6835C29.454 32.6364 28.4334 27.3198 24.6289 27.7224C14.765 29.0832 7.46956 35.8683 5.58145 45.6868C2.58202 58.9792 11.0681 71.6347 25.2734 71.062C27.0897 70.9543 28.5846 69.4857 28.6565 67.6241C28.7453 65.6188 27.152 63.9367 25.1486 63.9008L25.1467 63.9027Z" fill="#F2AA19"/>
<path d="M34.6063 53.6927C30.5693 51.7536 31.7184 45.8171 36.2072 45.5412C38.5432 45.3654 40.8263 47.4406 40.7734 49.8315C40.6732 52.9424 37.4017 54.9874 34.6063 53.6927ZM49.131 50.0072C48.9855 47.5105 48.9703 44.9288 48.6018 42.4453C48.1879 39.9713 47.3223 37.6032 45.8216 35.5053C42.5651 30.9239 37.0577 29.0623 31.6334 29.2229C28.4071 29.2909 28.0707 33.8572 31.2648 34.3864L31.4878 34.4166L32.4688 34.5546C34.561 34.8154 36.8044 35.5053 38.4979 36.6695C40.3293 37.8564 41.5389 39.8031 42.1758 41.9332C39.5241 39.8485 35.8556 39.0906 32.3308 40.4779C25.5589 43.1125 23.788 52.0087 28.976 57.0645C33.5574 61.4928 40.3141 60.4589 43.7691 56.2442C43.8919 57.2856 44.0223 58.3213 44.1754 59.3552C44.3512 60.6196 45.4323 61.5929 46.7496 61.6005C48.1822 61.6005 49.354 60.4363 49.354 59.0036C49.3616 56.0004 49.269 53.0048 49.131 50.0091V50.0072Z" fill="#F2AA19"/>
<path d="M63.5472 32.8632C67.5843 31.7897 66.4503 25.961 62.2904 26.4977C57.8167 27.3104 53.1976 29.5935 50.8445 33.623C48.792 37.2462 49.2891 41.4533 51.8859 44.6096C53.3034 46.4712 55.509 47.9417 56.5448 49.9186C57.8545 52.8613 55.4807 55.8872 53.4489 57.9322C52.9594 58.4217 52.4076 58.9131 51.8632 59.3648C48.8903 61.2416 51.3492 65.5395 54.445 63.8933C60.4287 60.8371 65.6527 54.156 62.7723 47.2065C61.9747 45.1842 60.3059 43.3754 58.8884 41.9428C58.1078 41.115 56.9965 40.0585 56.6827 39.07C56.5448 38.6334 56.5523 38.1515 56.6601 37.7054C57.365 35.2239 61.2036 33.4926 63.5472 32.8632Z" fill="#F2AA19"/>
<path d="M74.7645 53.6927C70.7275 51.7536 71.8766 45.8171 76.3654 45.5412C78.7014 45.3654 80.9845 47.4406 80.9316 49.8315C80.8314 52.9424 77.5599 54.9874 74.7645 53.6927ZM89.2892 50.0072C89.1437 47.5105 89.1285 44.9288 88.76 42.4453C88.3461 39.9713 87.4805 37.6032 85.9798 35.5053C82.7233 30.9239 77.2159 29.0623 71.7916 29.2229C68.5653 29.2909 68.2289 33.8572 71.423 34.3864L71.646 34.4166L72.627 34.5546C74.7192 34.8154 76.9626 35.5053 78.6561 36.6695C80.4875 37.8564 81.6971 39.8031 82.334 41.9332C79.6823 39.8485 76.0138 39.0906 72.489 40.4779C65.7171 43.1125 63.9462 52.0087 69.1342 57.0645C73.7156 61.4928 80.4723 60.4589 83.9273 56.2442C84.0501 57.2856 84.1805 58.3213 84.3336 59.3552C84.5094 60.6196 85.5905 61.5929 86.9078 61.6005C88.3404 61.6005 89.5122 60.4363 89.5122 59.0036C89.5198 56.0004 89.4272 53.0048 89.2892 50.0091V50.0072Z" fill="#F2AA19"/>
</svg>
