<svg width="32" height="32" viewBox="0 0 32 32" fill="none" xmlns="http://www.w3.org/2000/svg">
<g clip-path="url(#clip0_594_2709)">
<path d="M13.6621 21.1958C13.6621 21.1958 15.2209 20.1565 15.7405 18.5977C16.2601 17.0389 16.7798 16.5193 16.7798 16.5193H17.819C17.819 16.5193 17.2994 19.6369 16.2601 21.7154" fill="#DDEACC"/>
<path d="M16.259 22.2349C16.1808 22.2349 16.1017 22.2171 16.0272 22.1801C15.7704 22.0518 15.6664 21.7396 15.7948 21.4829C16.5178 20.0372 16.9873 18.0309 17.1902 17.0388H17.0304C16.8665 17.2747 16.5518 17.805 16.2327 18.7621C15.6633 20.4701 14.0193 21.5814 13.9498 21.628C13.7113 21.7869 13.3891 21.7225 13.2302 21.4845C13.0709 21.2465 13.1349 20.9238 13.3729 20.7639C13.3865 20.7543 14.7922 19.7982 15.2474 18.4333C15.7898 16.805 16.35 16.2138 16.4119 16.152C16.5094 16.0546 16.6413 15.9998 16.7793 15.9998H17.8185C17.9713 15.9998 18.1164 16.0668 18.2148 16.1834C18.3138 16.3001 18.3564 16.4539 18.3311 16.6046C18.3093 16.735 17.7867 19.8237 16.7246 21.9478C16.633 22.1298 16.4499 22.2349 16.259 22.2349Z" fill="#6D944B"/>
<path d="M8.98438 28.4702L10.5432 25.8722V17.5095C10.5432 17.278 10.77 17.1144 10.9897 17.1877L11.2817 17.285C11.7717 17.4483 12.1022 17.9068 12.1022 18.4232V19.6369C12.1022 20.4942 12.8036 21.1957 13.661 21.1957H14.1806C15.5279 21.1957 16.775 20.4901 17.8178 19.6369L21.0064 17.3593C21.2983 17.1508 21.648 17.0388 22.0067 17.0388H23.0138C23.0138 17.0388 14.7001 24.8329 14.7001 28.4702H8.98438Z" fill="#DDEACC"/>
<path d="M14.7001 28.99H8.98441C8.79722 28.99 8.62458 28.8896 8.53235 28.7267C8.43999 28.5633 8.44259 28.3634 8.53898 28.2031L10.0236 25.7283V17.5094C10.0236 17.2344 10.157 16.9741 10.3798 16.8133C10.6031 16.6519 10.8918 16.6088 11.1536 16.6945L11.4459 16.7925C12.1492 17.0269 12.6217 17.682 12.6217 18.4234V19.6371C12.6217 20.2099 13.088 20.6763 13.6609 20.6763H14.1805C15.2065 20.6763 16.3193 20.1912 17.489 19.2346L20.7046 16.9369C21.0866 16.6639 21.5367 16.5193 22.0066 16.5193H23.0138C23.227 16.5193 23.4187 16.6497 23.4969 16.8476C23.5755 17.0459 23.5249 17.2723 23.3691 17.418C21.1023 19.5437 15.2197 25.6724 15.2197 28.4704C15.2197 28.7576 14.9873 28.99 14.7001 28.99ZM9.9023 27.9508H14.2256C14.7417 24.8022 19.5764 19.7025 21.6894 17.6007C21.5539 17.6383 21.425 17.6992 21.3082 17.7823L18.1195 20.0596C16.7871 21.1517 15.4526 21.7155 14.1805 21.7155H13.6609C12.5146 21.7155 11.5825 20.7833 11.5825 19.6371V18.4233C11.5825 18.1299 11.3957 17.8707 11.1171 17.7778L11.0628 17.7601V25.8724C11.0628 25.9668 11.0375 26.0592 10.9888 26.1398L9.9023 27.9508Z" fill="#6D944B"/>
<path d="M3.26953 15.4797H28.7303V17.0386H3.26953V15.4797Z" fill="#A9C28A"/>
<path d="M28.7304 17.5585H3.26961C2.98239 17.5585 2.75 17.3261 2.75 17.0389V15.4801C2.75 15.1928 2.98239 14.9604 3.26961 14.9604H28.7304C29.0176 14.9604 29.25 15.1928 29.25 15.4801V17.0389C29.25 17.3261 29.0176 17.5585 28.7304 17.5585ZM3.78922 16.5193H28.2108V15.9997H3.78922V16.5193Z" fill="#6D944B"/>
<path d="M26.6793 15.4804C26.7406 15.0093 26.7723 14.529 26.7723 14.0412C26.7723 7.94853 21.8333 3.00952 15.7407 3.00952C9.64799 3.00952 4.70898 7.94853 4.70898 14.0412C4.70898 14.529 4.74068 15.0093 4.80199 15.4804H26.6793Z" fill="#DDEACC"/>
<path d="M26.6793 16.0003H4.80194C4.5411 16.0003 4.32039 15.8065 4.28688 15.5477C4.22193 15.0526 4.18945 14.5455 4.18945 14.0411C4.18945 7.67191 9.37137 2.48999 15.7406 2.48999C22.1098 2.48999 27.2917 7.67191 27.2917 14.0411C27.2917 14.5455 27.2593 15.0524 27.1943 15.5477C27.1608 15.8065 26.9401 16.0003 26.6793 16.0003ZM5.26829 14.9611H26.2129C26.2393 14.6561 26.2525 14.3481 26.2525 14.0411C26.2525 8.24478 21.537 3.52921 15.7406 3.52921C9.94424 3.52921 5.22867 8.24478 5.22867 14.0411C5.22867 14.3481 5.24192 14.6561 5.26829 14.9611Z" fill="#6D944B"/>
<path d="M15.7404 3.0091C16.3143 3.0091 16.7796 2.54382 16.7796 1.96988C16.7796 1.39594 16.3143 0.930664 15.7404 0.930664C15.1664 0.930664 14.7012 1.39594 14.7012 1.96988C14.7012 2.54382 15.1664 3.0091 15.7404 3.0091Z" fill="#DDEACC"/>
<path d="M15.7405 3.52854C14.8809 3.52854 14.1816 2.82927 14.1816 1.96971C14.1816 1.11015 14.8809 0.410889 15.7405 0.410889C16.6 0.410889 17.2993 1.11015 17.2993 1.96971C17.2993 2.82927 16.6 3.52854 15.7405 3.52854ZM15.7405 1.4501C15.4538 1.4501 15.2209 1.68302 15.2209 1.96971C15.2209 2.25641 15.4538 2.48932 15.7405 2.48932C16.0272 2.48932 16.2601 2.25641 16.2601 1.96971C16.2601 1.68302 16.0272 1.4501 15.7405 1.4501Z" fill="#6D944B"/>
<path d="M24.3139 11.0635C24.1196 11.0635 23.9333 10.9544 23.844 10.7672C21.9772 6.84674 18.0604 5.44731 17.6747 5.41223C17.3982 5.38742 17.1735 5.14788 17.1861 4.87028C17.1987 4.59268 17.4103 4.37354 17.6884 4.37354C18.3206 4.37354 22.7312 6.01303 24.7827 10.3206C24.906 10.5793 24.796 10.8894 24.5366 11.0132C24.4646 11.0473 24.3885 11.0635 24.3139 11.0635Z" fill="white"/>
<path d="M8.46484 28.4702H15.2197V31.0683H8.46484V28.4702Z" fill="white"/>
<path d="M15.2198 31.5877H8.46492C8.17771 31.5877 7.94531 31.3553 7.94531 31.0681V28.47C7.94531 28.1828 8.17771 27.9504 8.46492 27.9504H15.2198C15.507 27.9504 15.7394 28.1828 15.7394 28.47V31.0681C15.7394 31.3553 15.507 31.5877 15.2198 31.5877ZM8.98453 30.5485H14.7002V28.9897H8.98453V30.5485Z" fill="#6D944B"/>
<path d="M13.3406 30.2611C13.6474 30.2611 13.8961 30.0124 13.8961 29.7056C13.8961 29.3988 13.6474 29.1501 13.3406 29.1501C13.0338 29.1501 12.7852 29.3988 12.7852 29.7056C12.7852 30.0124 13.0338 30.2611 13.3406 30.2611Z" fill="#6D944B"/>
</g>
<defs>
<clipPath id="clip0_594_2709">
<rect width="32" height="32" fill="white"/>
</clipPath>
</defs>
</svg>
