<svg width="32" height="32" viewBox="0 0 32 32" fill="none" xmlns="http://www.w3.org/2000/svg">
<g clip-path="url(#clip0_594_7403)">
<path d="M28.972 31.4915H16.2736L15.2578 9.65063H29.9878L28.972 31.4915Z" fill="#DDEACC"/>
<path d="M28.9722 31.9995H16.2738C16.0023 31.9995 15.7791 31.7862 15.7663 31.5156L14.7505 9.67445C14.7441 9.53553 14.7947 9.40009 14.8906 9.29982C14.9865 9.19954 15.1191 9.14258 15.258 9.14258H29.988C30.127 9.14258 30.2598 9.19954 30.3554 9.29982C30.4516 9.40009 30.5019 9.53553 30.4958 9.67445L29.4797 31.5156C29.4669 31.7862 29.2434 31.9995 28.9722 31.9995ZM16.7586 30.9837H28.4872L29.4559 10.1584H15.7899L16.7586 30.9837Z" fill="#6D944B"/>
<path d="M29.9169 11.1742L29.9878 9.65063H15.2578L15.3287 11.1742H29.9169Z" fill="#6D944B"/>
<path d="M29.9171 11.6822H15.3289C15.0575 11.6822 14.8342 11.4689 14.8215 11.1983L14.7505 9.67445C14.7441 9.53553 14.7947 9.40009 14.8906 9.29982C14.9865 9.19954 15.1191 9.14258 15.258 9.14258H29.988C30.127 9.14258 30.2598 9.19954 30.3554 9.29982C30.4516 9.40009 30.5019 9.53553 30.4958 9.67445L30.4246 11.1983C30.4118 11.4689 30.1883 11.6822 29.9171 11.6822ZM15.8137 10.6664H29.4323L29.4559 10.1584H15.7902L15.8137 10.6664Z" fill="#6D944B"/>
<path d="M17.7967 31.4915H5.60627C3.92316 31.4915 2.55859 30.1272 2.55859 28.4441H20.8443C20.8443 30.1272 19.4798 31.4915 17.7967 31.4915Z" fill="#DDEACC"/>
<path d="M17.7969 31.9997H5.6065C3.64582 31.9997 2.05078 30.4047 2.05078 28.4443C2.05078 28.1636 2.27835 27.9363 2.55882 27.9363H20.8446C21.125 27.9363 21.3523 28.1636 21.3523 28.4443C21.3523 30.4044 19.7573 31.9997 17.7969 31.9997ZM3.11773 28.9521C3.35373 30.11 4.37999 30.984 5.6065 30.984H17.7969C19.0231 30.984 20.0497 30.11 20.2854 28.9521H3.11773Z" fill="#6D944B"/>
<path d="M20.8447 28.4442H2.55899C1.71758 28.4442 1.03516 27.7617 1.03516 26.9203C1.03516 26.0786 1.71758 25.3965 2.55899 25.3965H20.8447C21.6861 25.3965 22.3683 26.0786 22.3683 26.9203C22.3683 27.7617 21.6861 28.4442 20.8447 28.4442Z" fill="#A9C28A"/>
<path d="M20.8447 28.9519H2.55893C1.4388 28.9519 0.527344 28.0407 0.527344 26.9203C0.527344 25.7999 1.4388 24.8884 2.55893 24.8884H20.8447C21.9648 24.8884 22.8763 25.7999 22.8763 26.9203C22.8763 28.0407 21.9648 28.9519 20.8447 28.9519ZM2.55893 25.9045C1.99857 25.9045 1.54314 26.3602 1.54314 26.9203C1.54314 27.4804 1.99857 27.9361 2.55893 27.9361H20.8447C21.4047 27.9361 21.8605 27.4804 21.8605 26.9203C21.8605 26.3602 21.4047 25.9045 20.8447 25.9045H2.55893Z" fill="#6D944B"/>
<path d="M26.9396 20.3174C26.9396 22.8419 24.8929 24.8886 22.3681 24.8886C19.8436 24.8886 17.7969 22.8419 17.7969 20.3174C17.7969 17.7926 19.8436 15.7458 22.3681 15.7458C24.8929 15.7458 26.9396 17.7926 26.9396 20.3174Z" fill="#A9C28A"/>
<path d="M22.3683 25.3966C19.5677 25.3966 17.2891 23.118 17.2891 20.3173C17.2891 17.5167 19.5677 15.2378 22.3683 15.2378C25.1692 15.2378 27.4479 17.5167 27.4479 20.3173C27.4479 23.118 25.1692 25.3966 22.3683 25.3966ZM22.3683 16.2539C20.1278 16.2539 18.3049 18.0765 18.3049 20.3173C18.3049 22.5579 20.1278 24.3808 22.3683 24.3808C24.6092 24.3808 26.4321 22.5579 26.4321 20.3173C26.4321 18.0765 24.6092 16.2539 22.3683 16.2539Z" fill="#6D944B"/>
<path d="M12.7174 17.2695H10.6855C6.19714 17.2695 2.55859 20.9081 2.55859 25.3965H20.8443C20.8443 20.9081 17.2055 17.2695 12.7174 17.2695Z" fill="#DDEACC"/>
<path d="M20.8446 25.9045H2.55882C2.27835 25.9045 2.05078 25.6772 2.05078 25.3964C2.05078 20.6352 5.92446 16.7615 10.6858 16.7615H12.7176C17.4789 16.7615 21.3523 20.6352 21.3523 25.3964C21.3523 25.6772 21.125 25.9045 20.8446 25.9045ZM3.08372 24.8884H20.3197C20.0572 20.9232 16.748 17.7776 12.7176 17.7776H10.6858C6.65542 17.7776 3.34588 20.9232 3.08372 24.8884Z" fill="#6D944B"/>
<path d="M6.62305 19.8091H7.63884V20.8249H6.62305V19.8091Z" fill="#6D944B"/>
<path d="M6.11328 21.8408H7.12937V22.8566H6.11328V21.8408Z" fill="#6D944B"/>
<path d="M12.209 19.301H13.2248V20.3171H12.209V19.301Z" fill="#6D944B"/>
<path d="M15.2578 21.8408H16.2736V22.8566H15.2578V21.8408Z" fill="#6D944B"/>
<path d="M10.6855 22.3486H11.7013V23.3644H10.6855V22.3486Z" fill="#6D944B"/>
<path d="M13.7324 7.6189H31.0021V9.65077H13.7324V7.6189Z" fill="#A9C28A"/>
<path d="M31.0023 10.1585H13.7327C13.4522 10.1585 13.2246 9.93152 13.2246 9.65076V7.61888C13.2246 7.33812 13.4522 7.11084 13.7327 7.11084H31.0023C31.2828 7.11084 31.5103 7.33812 31.5103 7.61888V9.65076C31.5103 9.93152 31.2828 10.1585 31.0023 10.1585ZM14.2404 9.14272H30.4946V8.12692H14.2404V9.14272Z" fill="#6D944B"/>
<path d="M17.2872 8.12697C17.0529 8.12697 16.8422 7.96363 16.7911 7.72559L15.2672 0.614457C15.2085 0.340381 15.3832 0.0697934 15.6575 0.0113744C15.9325 -0.0482072 16.2019 0.127341 16.2609 0.401125L17.7845 7.51226C17.8435 7.78663 17.6685 8.05693 17.3941 8.11535C17.3587 8.12319 17.3226 8.12697 17.2872 8.12697Z" fill="#6D944B"/>
<path d="M6.11425 27.4281H2.55882C2.27835 27.4281 2.05078 27.2012 2.05078 26.9204C2.05078 26.6396 2.27835 26.4124 2.55882 26.4124H6.11425C6.39501 26.4124 6.62229 26.6396 6.62229 26.9204C6.62229 27.2012 6.39501 27.4281 6.11425 27.4281Z" fill="white"/>
</g>
<defs>
<clipPath id="clip0_594_7403">
<rect width="32" height="32" fill="white"/>
</clipPath>
</defs>
</svg>
