<svg width="25" height="24" viewBox="0 0 25 24" fill="none" xmlns="http://www.w3.org/2000/svg">
<path d="M9.46 17C9.38 17.56 9.17667 18.07 8.85 18.53C8.52333 18.99 8.11 19.35 7.61 19.61C7.11 19.87 6.57333 20 6 20C5.42667 20 4.89 19.87 4.39 19.61C3.89 19.35 3.47667 18.99 3.15 18.53C2.82333 18.07 2.62 17.56 2.54 17H1.5V5C1.5 4.72 1.59667 4.48333 1.79 4.29C1.98333 4.09667 2.22 4 2.5 4H16.5C16.78 4 17.0167 4.09667 17.21 4.29C17.4033 4.48333 17.5 4.72 17.5 5V7H20.5L23.5 11.06V17H21.46C21.38 17.56 21.1767 18.07 20.85 18.53C20.5233 18.99 20.11 19.35 19.61 19.61C19.11 19.87 18.5733 20 18 20C17.4267 20 16.89 19.87 16.39 19.61C15.89 19.35 15.4767 18.99 15.15 18.53C14.8233 18.07 14.62 17.56 14.54 17H9.46ZM15.5 6H3.5V14.06C3.82 13.7267 4.19667 13.4667 4.63 13.28C5.06333 13.0933 5.52 13 6 13C6.69333 13 7.32333 13.1833 7.89 13.55C8.45667 13.9167 8.88 14.4 9.16 15H14.84C15 14.6533 15.22 14.34 15.5 14.06V6ZM17.5 12H21.5V11.72L19.5 9H17.5V12ZM18 18C18.32 18 18.61 17.9067 18.87 17.72C19.13 17.5333 19.3133 17.2933 19.42 17C19.4733 16.84 19.5 16.6733 19.5 16.5C19.5 16.0867 19.3533 15.7333 19.06 15.44C18.7667 15.1467 18.4133 15 18 15C17.5867 15 17.2333 15.1467 16.94 15.44C16.6467 15.7333 16.5 16.0867 16.5 16.5C16.5 16.6733 16.5267 16.84 16.58 17C16.6867 17.2933 16.87 17.5333 17.13 17.72C17.39 17.9067 17.68 18 18 18ZM7.5 16.5C7.5 16.0867 7.35333 15.7333 7.06 15.44C6.76667 15.1467 6.41333 15 6 15C5.58667 15 5.23333 15.1467 4.94 15.44C4.64667 15.7333 4.5 16.0867 4.5 16.5C4.5 16.6733 4.52667 16.84 4.58 17C4.68667 17.2933 4.87 17.5333 5.13 17.72C5.39 17.9067 5.68 18 6 18C6.32 18 6.61 17.9067 6.87 17.72C7.13 17.5333 7.31333 17.2933 7.42 17C7.47333 16.84 7.5 16.6733 7.5 16.5Z" fill="#4A5A2A"/>
</svg>
