<svg width="25" height="24" viewBox="0 0 25 24" fill="none" xmlns="http://www.w3.org/2000/svg">
<path d="M19.5 22H5.5C4.95333 22 4.45 21.8667 3.99 21.6C3.53 21.3333 3.16667 20.97 2.9 20.51C2.63333 20.05 2.5 19.5467 2.5 19V3C2.5 2.72 2.59667 2.48333 2.79 2.29C2.98333 2.09667 3.22 2 3.5 2H17.5C17.78 2 18.0167 2.09667 18.21 2.29C18.4033 2.48333 18.5 2.72 18.5 3V15H22.5V19C22.5 19.5467 22.3667 20.05 22.1 20.51C21.8333 20.97 21.47 21.3333 21.01 21.6C20.55 21.8667 20.0467 22 19.5 22ZM18.5 17V19C18.5 19.28 18.5967 19.5167 18.79 19.71C18.9833 19.9033 19.22 20 19.5 20C19.78 20 20.0167 19.9033 20.21 19.71C20.4033 19.5167 20.5 19.28 20.5 19V17H18.5ZM16.5 20V4H4.5V19C4.5 19.28 4.59667 19.5167 4.79 19.71C4.98333 19.9033 5.22 20 5.5 20H16.5ZM6.5 7H14.5V9H6.5V7ZM6.5 11H14.5V13H6.5V11ZM6.5 15H11.5V17H6.5V15Z" fill="#4A5A2A"/>
</svg>
