<svg width="32" height="32" viewBox="0 0 32 32" fill="none" xmlns="http://www.w3.org/2000/svg">
<g clip-path="url(#clip0_594_7367)">
<path d="M5.16211 12.4324H26.3235V28.4325H5.16211V12.4324Z" fill="#EEF5E8"/>
<path d="M26.3219 28.9486H5.16048C4.87519 28.9486 4.64453 28.7176 4.64453 28.4326V12.4324C4.64453 12.1475 4.87519 11.9165 5.16048 11.9165H26.3219C26.6071 11.9165 26.8381 12.1475 26.8381 12.4324V28.4326C26.8381 28.7176 26.6071 28.9486 26.3219 28.9486ZM5.67671 27.9164H25.8056V12.9487H5.67671V27.9164Z" fill="#6D944B"/>
<path d="M23.7424 19.1421H7.74219L8.77467 15.5293H22.7102L23.7424 19.1421Z" fill="#DDEACC"/>
<path d="M23.7428 19.6582H7.74263C7.58109 19.6582 7.4281 19.582 7.33035 19.4527C7.23319 19.3236 7.20188 19.1558 7.24648 19.0002L8.27866 15.3871C8.34216 15.1656 8.54475 15.0129 8.77511 15.0129H22.7106C22.941 15.0129 23.1436 15.1659 23.2071 15.3871L24.2393 19.0002C24.2838 19.1558 24.2525 19.3236 24.1554 19.4527C24.0573 19.582 23.9046 19.6582 23.7428 19.6582ZM8.42721 18.626H23.0582L22.3214 16.0454H9.16406L8.42721 18.626Z" fill="#6D944B"/>
<path d="M0.515625 28.4326H31.4832V30.497H0.515625V28.4326Z" fill="#DDEACC"/>
<path d="M31.4838 31.0131H0.516239C0.230949 31.0131 0 30.7819 0 30.4969V28.4325C0 28.1475 0.230949 27.9163 0.516239 27.9163H31.4838C31.7691 27.9163 32 28.1475 32 28.4325V30.4969C32 30.7819 31.7691 31.0131 31.4838 31.0131ZM1.03218 29.9809H30.9679V28.9484H1.03218V29.9809Z" fill="#6D944B"/>
<path d="M8.77344 19.1421H22.7089V25.3358H8.77344V19.1421Z" fill="#A9C28A"/>
<path d="M22.7096 25.8521H8.77405C8.48876 25.8521 8.25781 25.6208 8.25781 25.3359V19.1422C8.25781 18.8572 8.48876 18.6262 8.77405 18.6262H22.7096C22.9948 18.6262 23.2255 18.8572 23.2255 19.1422V25.3359C23.2255 25.6208 22.9948 25.8521 22.7096 25.8521ZM9.29 24.8196H22.1933V19.6584H9.29V24.8196Z" fill="#6D944B"/>
<path d="M8.77405 12.9486C8.48876 12.9486 8.25781 12.7174 8.25781 12.4324V9.33552C8.25781 9.05053 8.48876 8.81958 8.77405 8.81958C9.05934 8.81958 9.29 9.05053 9.29 9.33552V12.4324C9.29 12.7174 9.05934 12.9486 8.77405 12.9486Z" fill="#6D944B"/>
<path d="M22.7096 12.9486C22.4243 12.9486 22.1934 12.7174 22.1934 12.4324V9.33552C22.1934 9.05053 22.4243 8.81958 22.7096 8.81958C22.9949 8.81958 23.2255 9.05053 23.2255 9.33552V12.4324C23.2255 12.7174 22.9949 12.9486 22.7096 12.9486Z" fill="#6D944B"/>
<path d="M3.09766 1.59375H28.3878V8.81962H3.09766V1.59375Z" fill="#DDEACC"/>
<path d="M28.3864 9.33618H3.09632C2.81103 9.33618 2.58008 9.10523 2.58008 8.82024V1.59436C2.58008 1.30937 2.81103 1.07812 3.09632 1.07812H28.3864C28.6717 1.07812 28.9027 1.30937 28.9027 1.59436V8.82024C28.9027 9.10523 28.6717 9.33618 28.3864 9.33618ZM3.61226 8.304H27.8705V2.1106H3.61226V8.304Z" fill="#6D944B"/>
<path d="M26.3223 12.4329H27.3544V28.433H26.3223V12.4329Z" fill="#6D944B"/>
<path d="M27.3551 28.949H26.3229C26.0376 28.949 25.8066 28.7181 25.8066 28.4331V12.4329C25.8066 12.1479 26.0376 11.917 26.3229 11.917H27.3551C27.6404 11.917 27.8713 12.1479 27.8713 12.4329V28.4331C27.8713 28.7181 27.6404 28.949 27.3551 28.949Z" fill="#6D944B"/>
<path d="M28.3867 1.59424H29.4192V8.82011H28.3867V1.59424Z" fill="#6D944B"/>
<path d="M29.4195 9.33618H28.387C28.1017 9.33618 27.8711 9.10523 27.8711 8.82024V1.59436C27.8711 1.30937 28.1017 1.07812 28.387 1.07812H29.4195C29.7048 1.07812 29.9355 1.30937 29.9355 1.59436V8.82024C29.9355 9.10523 29.7048 9.33618 29.4195 9.33618Z" fill="#6D944B"/>
<path d="M10.0649 23.0131C9.93291 23.0131 9.8006 22.9626 9.69989 22.8619C9.49847 22.6602 9.49847 22.3336 9.69989 22.1318L11.5064 20.3256C11.7078 20.1239 12.0348 20.1239 12.2362 20.3256C12.4376 20.527 12.4376 20.8537 12.2362 21.0554L10.4297 22.8619C10.3289 22.9626 10.1969 23.0131 10.0649 23.0131Z" fill="white"/>
</g>
<defs>
<clipPath id="clip0_594_7367">
<rect width="32" height="32" fill="white"/>
</clipPath>
</defs>
</svg>
